<svg width="20" height="20" viewBox="0 0 20 20" fill="none" xmlns="http://www.w3.org/2000/svg">
<path fill-rule="evenodd" clip-rule="evenodd" d="M19.1429 16.4762V17.3143C19.1429 18.3048 18.3048 19.1429 17.3143 19.1429H2.68575C1.69527 19.1429 0.857178 18.3048 0.857178 17.3143V16.4762C0.857178 14.2667 3.44765 12.8952 5.88575 11.8286L6.11432 11.7143C6.3048 11.6381 6.49527 11.6381 6.68575 11.7524C7.67623 12.4 8.78099 12.7429 9.96194 12.7429C11.1429 12.7429 12.2857 12.3619 13.2381 11.7524C13.4286 11.6381 13.6191 11.6381 13.8096 11.7143L14.0381 11.8286C16.5524 12.8952 19.1429 14.2286 19.1429 16.4762ZM10 0.857145C12.5143 0.857145 14.5334 3.10476 14.5334 5.88572C14.5334 8.66667 12.5143 10.9143 10 10.9143C7.48575 10.9143 5.4667 8.66667 5.4667 5.88572C5.4667 3.10476 7.48575 0.857145 10 0.857145Z" fill="white"/>
</svg>
