<svg width="20" height="20" viewBox="0 0 20 20" fill="none" xmlns="http://www.w3.org/2000/svg">
<path d="M18.4241 19.2626L17.3764 4.08329C17.3514 3.72157 17.0507 3.44091 16.6881 3.44091H14.2878V2.36778C14.2878 1.06215 13.2257 0 11.9201 0H8.08001C6.77443 0 5.71224 1.06215 5.71224 2.36778V3.44087H3.31204C2.94946 3.44087 2.64872 3.72153 2.62375 4.08325L1.57598 19.2626C1.56282 19.4534 1.62942 19.6411 1.75989 19.7809C1.89039 19.9206 2.07301 20 2.26426 20H17.7358C17.927 20 18.1097 19.9206 18.2402 19.7809C18.3707 19.641 18.4373 19.4534 18.4241 19.2626ZM12.908 3.43212H7.09212V2.36778C7.09212 1.82305 7.53533 1.37989 8.08001 1.37989H11.9201C12.4648 1.37989 12.908 1.82305 12.908 2.36778V3.43212Z" fill="white"/>
</svg>
